<svg width="50" height="48" viewBox="0 0 50 48" fill="none" xmlns="http://www.w3.org/2000/svg">
<path d="M25 0L49.7275 17.9656L40.2824 47.0344H9.71758L0.272532 17.9656L25 0Z" fill="#4F934A"/>
<path fill-rule="evenodd" clip-rule="evenodd" d="M18.7204 28.8871C19.5018 28.1057 20.5616 27.6667 21.6667 27.6667H28.3333C29.4384 27.6667 30.4982 28.1057 31.2796 28.8871C32.061 29.6685 32.5 30.7283 32.5 31.8333V33.5C32.5 33.9602 32.1269 34.3333 31.6667 34.3333C31.2064 34.3333 30.8333 33.9602 30.8333 33.5V31.8333C30.8333 31.1703 30.5699 30.5344 30.1011 30.0656C29.6323 29.5967 28.9964 29.3333 28.3333 29.3333H21.6667C21.0036 29.3333 20.3677 29.5967 19.8989 30.0656C19.4301 30.5344 19.1667 31.1703 19.1667 31.8333V33.5C19.1667 33.9602 18.7936 34.3333 18.3333 34.3333C17.8731 34.3333 17.5 33.9602 17.5 33.5V31.8333C17.5 30.7283 17.939 29.6685 18.7204 28.8871Z" fill="white"/>
<path fill-rule="evenodd" clip-rule="evenodd" d="M24.9999 19.3333C23.6192 19.3333 22.4999 20.4526 22.4999 21.8333C22.4999 23.214 23.6192 24.3333 24.9999 24.3333C26.3806 24.3333 27.4999 23.214 27.4999 21.8333C27.4999 20.4526 26.3806 19.3333 24.9999 19.3333ZM20.8333 21.8333C20.8333 19.5321 22.6987 17.6667 24.9999 17.6667C27.3011 17.6667 29.1666 19.5321 29.1666 21.8333C29.1666 24.1345 27.3011 26 24.9999 26C22.6987 26 20.8333 24.1345 20.8333 21.8333Z" fill="white"/>
</svg>
